<svg width="100" height="85" viewBox="0 0 100 85" fill="none" xmlns="http://www.w3.org/2000/svg">
<path d="M49.031 22.6185C56.638 22.7313 62.8938 24.3286 68.8753 27.0463C76.4926 30.5049 83.215 35.2634 89.1735 41.1193C90.2708 42.1961 90.2785 42.814 89.1786 43.878C81.146 51.6619 72.0186 57.646 61.1684 60.7483C57.2303 61.8738 53.1973 62.4686 49.1028 62.3481C43.6495 62.1866 38.4038 60.9534 33.3555 58.9023C24.7486 55.4026 17.257 50.2236 10.6602 43.7165C9.78336 42.8499 9.77823 42.1577 10.6551 41.2962C18.3774 33.7354 27.1741 27.9077 37.55 24.6234C41.2804 23.4415 46.3492 22.6185 49.0259 22.621L49.031 22.6185ZM50.0514 25.5438C41.3933 25.3156 33.1094 32.4175 33.0017 42.2705C32.8915 52.4593 41.2881 59.4535 49.9079 59.4997C58.6404 59.5484 66.9371 52.5388 67.0012 42.6115C67.0678 32.5355 58.6712 25.3387 50.0489 25.5438H50.0514ZM63.7938 28.1103C67.7139 32.1355 69.8317 36.9171 69.8214 42.5448C69.8086 48.1417 67.6754 52.8977 63.7656 56.9076C72.4442 53.7874 79.8692 48.7622 86.5891 42.4961C79.8333 36.2326 72.4365 31.2202 63.7938 28.1103ZM13.4112 42.5038C20.1927 48.775 27.592 53.8028 36.2271 56.8973C32.289 52.8721 30.1738 48.093 30.1789 42.4705C30.184 36.8736 32.3069 32.1124 36.2194 28.1026C27.5663 31.2202 20.1593 36.2428 13.4138 42.5038H13.4112Z" fill="url(#paint0_linear_711_81)"/>
<path d="M51.4128 16.0729C51.4128 16.8805 51.4231 17.6907 51.4103 18.4983C51.3949 19.4341 50.8334 20.0571 50.0232 20.07C49.2156 20.0828 48.608 19.4546 48.5977 18.5368C48.5823 16.8421 48.5823 15.1473 48.5977 13.4526C48.6054 12.5245 49.1951 11.922 50.0207 11.9323C50.8437 11.9425 51.3923 12.5476 51.4103 13.4911C51.4257 14.35 51.4128 15.2114 51.4128 16.0729Z" fill="url(#paint1_linear_711_81)"/>
<path d="M48.5926 68.968C48.5926 68.1604 48.5849 67.3502 48.5926 66.5426C48.6054 65.5658 49.1874 64.9197 50.0181 64.9325C50.8283 64.9453 51.3975 65.5683 51.4052 66.5016C51.418 68.1707 51.418 69.8397 51.4052 71.5063C51.3975 72.4498 50.8411 73.0548 50.0181 73.0676C49.1643 73.0805 48.6028 72.4626 48.59 71.4704C48.5798 70.6371 48.59 69.8013 48.59 68.968H48.5926Z" fill="url(#paint2_linear_711_81)"/>
<path d="M35.6887 15.8473C35.8809 15.9883 36.3835 16.1883 36.6142 16.5575C37.5526 18.0573 38.4243 19.6008 39.2858 21.1468C39.6909 21.8749 39.4627 22.6415 38.8012 23.0517C38.1474 23.4543 37.3167 23.2953 36.8911 22.5877C35.9527 21.0263 35.0297 19.4521 34.1734 17.8445C33.6786 16.9164 34.376 15.8652 35.6912 15.8498L35.6887 15.8473Z" fill="url(#paint3_linear_711_81)"/>
<path d="M66.0141 17.3805C65.932 17.5753 65.8295 17.8984 65.6679 18.1855C64.886 19.57 64.0912 20.9468 63.2912 22.321C62.7528 23.244 61.9606 23.5132 61.2068 23.0569C60.4787 22.6159 60.3274 21.8262 60.8299 20.9442C61.6555 19.4957 62.4913 18.0522 63.3323 16.6113C63.704 15.9703 64.2783 15.6986 64.9911 15.9011C65.6295 16.0832 65.9602 16.5703 66.0166 17.3805H66.0141Z" fill="url(#paint4_linear_711_81)"/>
<path d="M39.5139 63.2711C39.4191 63.489 39.3165 63.8121 39.1524 64.1018C38.3679 65.4863 37.5731 66.8631 36.7706 68.2373C36.245 69.1347 35.5015 69.4064 34.7529 69.0014C33.9657 68.5758 33.7965 67.7707 34.3221 66.8477C35.1477 65.3966 35.9861 63.9531 36.8245 62.5096C37.2013 61.8636 37.7808 61.6123 38.4884 61.8123C39.1345 61.9943 39.4396 62.4968 39.5139 63.2737V63.2711Z" fill="url(#paint5_linear_711_81)"/>
<path d="M64.2835 69.1552C64.0963 69.0116 63.6066 68.7988 63.3733 68.4245C62.4503 66.9426 61.594 65.4222 60.7428 63.8967C60.3146 63.1275 60.5402 62.3353 61.235 61.9353C61.9273 61.5354 62.7169 61.7431 63.1784 62.5148C64.0732 64.0146 64.9578 65.5196 65.7936 67.0503C66.3448 68.0579 65.6705 69.168 64.2809 69.1526L64.2835 69.1552Z" fill="url(#paint6_linear_711_81)"/>
<path d="M59.8941 42.5884V49.557C59.8941 50.1749 59.6608 50.7697 59.2403 51.2209C56.9098 53.7258 53.6434 55.1488 50.2206 55.1488H49.7181C42.9162 55.1488 37.4039 49.6339 37.4039 42.8345V42.3448C37.4039 35.5429 42.9188 30.028 49.7207 30.028H50.2232C52.6384 30.028 54.9997 30.7408 57.0149 32.0714C57.6328 32.4893 58.0251 33.1713 58.0789 33.9174C58.1302 34.6635 57.8379 35.3916 57.2841 35.8916C56.4457 36.6454 55.2048 36.7351 54.2664 36.1121C53.064 35.3327 51.659 34.9173 50.2258 34.9148H49.7233C45.6211 34.9148 42.2932 38.2401 42.2932 42.3448V42.8345C42.2932 46.9367 45.6185 50.2621 49.7233 50.2621H50.2258C51.9769 50.2698 53.6742 49.6519 55.01 48.5161V45.0318H52.4615C51.1129 45.0318 50.0181 43.937 50.0181 42.5884C50.0181 41.2398 51.1129 40.145 52.4615 40.145H57.4533C58.8019 40.145 59.8967 41.2398 59.8967 42.5884H59.8941Z" fill="url(#paint7_linear_711_81)"/>
<defs>
<linearGradient id="paint0_linear_711_81" x1="50.0027" y1="-5.18763" x2="50.0027" y2="77.1536" gradientUnits="userSpaceOnUse">
<stop stop-color="#133072"/>
<stop offset="0.14" stop-color="#173274"/>
<stop offset="0.28" stop-color="#233A7D"/>
<stop offset="0.43" stop-color="#38488C"/>
<stop offset="0.58" stop-color="#555AA0"/>
<stop offset="0.73" stop-color="#7A72BB"/>
<stop offset="0.87" stop-color="#A890DB"/>
<stop offset="1" stop-color="#D5ADFB"/>
</linearGradient>
<linearGradient id="paint1_linear_711_81" x1="49.9474" y1="8.601" x2="49.9474" y2="410.744" gradientUnits="userSpaceOnUse">
<stop stop-color="#133072"/>
<stop offset="0.14" stop-color="#173274"/>
<stop offset="0.28" stop-color="#233A7D"/>
<stop offset="0.43" stop-color="#38488C"/>
<stop offset="0.58" stop-color="#555AA0"/>
<stop offset="0.73" stop-color="#7A72BB"/>
<stop offset="0.87" stop-color="#A890DB"/>
<stop offset="1" stop-color="#D5ADFB"/>
</linearGradient>
<linearGradient id="paint2_linear_711_81" x1="50.0735" y1="-389.678" x2="50.0735" y2="12.5886" gradientUnits="userSpaceOnUse">
<stop stop-color="#133072"/>
<stop offset="0.14" stop-color="#173274"/>
<stop offset="0.28" stop-color="#233A7D"/>
<stop offset="0.43" stop-color="#38488C"/>
<stop offset="0.58" stop-color="#555AA0"/>
<stop offset="0.73" stop-color="#7A72BB"/>
<stop offset="0.87" stop-color="#A890DB"/>
<stop offset="1" stop-color="#D5ADFB"/>
</linearGradient>
<linearGradient id="paint3_linear_711_81" x1="49.994" y1="-23.9723" x2="49.994" y2="416.998" gradientUnits="userSpaceOnUse">
<stop stop-color="#133072"/>
<stop offset="0.14" stop-color="#173274"/>
<stop offset="0.28" stop-color="#233A7D"/>
<stop offset="0.43" stop-color="#38488C"/>
<stop offset="0.58" stop-color="#555AA0"/>
<stop offset="0.73" stop-color="#7A72BB"/>
<stop offset="0.87" stop-color="#A890DB"/>
<stop offset="1" stop-color="#D5ADFB"/>
</linearGradient>
<linearGradient id="paint4_linear_711_81" x1="49.9579" y1="-23.7872" x2="49.9579" y2="416.13" gradientUnits="userSpaceOnUse">
<stop stop-color="#133072"/>
<stop offset="0.14" stop-color="#173274"/>
<stop offset="0.28" stop-color="#233A7D"/>
<stop offset="0.43" stop-color="#38488C"/>
<stop offset="0.58" stop-color="#555AA0"/>
<stop offset="0.73" stop-color="#7A72BB"/>
<stop offset="0.87" stop-color="#A890DB"/>
<stop offset="1" stop-color="#D5ADFB"/>
</linearGradient>
<linearGradient id="paint5_linear_711_81" x1="49.981" y1="-401.067" x2="49.981" y2="38.8413" gradientUnits="userSpaceOnUse">
<stop stop-color="#133072"/>
<stop offset="0.14" stop-color="#173274"/>
<stop offset="0.28" stop-color="#233A7D"/>
<stop offset="0.43" stop-color="#38488C"/>
<stop offset="0.58" stop-color="#555AA0"/>
<stop offset="0.73" stop-color="#7A72BB"/>
<stop offset="0.87" stop-color="#A890DB"/>
<stop offset="1" stop-color="#D5ADFB"/>
</linearGradient>
<linearGradient id="paint6_linear_711_81" x1="49.9959" y1="-402.136" x2="49.9959" y2="38.9889" gradientUnits="userSpaceOnUse">
<stop stop-color="#133072"/>
<stop offset="0.14" stop-color="#173274"/>
<stop offset="0.28" stop-color="#233A7D"/>
<stop offset="0.43" stop-color="#38488C"/>
<stop offset="0.58" stop-color="#555AA0"/>
<stop offset="0.73" stop-color="#7A72BB"/>
<stop offset="0.87" stop-color="#A890DB"/>
<stop offset="1" stop-color="#D5ADFB"/>
</linearGradient>
<linearGradient id="paint7_linear_711_81" x1="48.649" y1="11.4887" x2="48.649" y2="65.0197" gradientUnits="userSpaceOnUse">
<stop stop-color="#133072"/>
<stop offset="0.14" stop-color="#173274"/>
<stop offset="0.28" stop-color="#233A7D"/>
<stop offset="0.43" stop-color="#38488C"/>
<stop offset="0.58" stop-color="#555AA0"/>
<stop offset="0.73" stop-color="#7A72BB"/>
<stop offset="0.87" stop-color="#A890DB"/>
<stop offset="1" stop-color="#D5ADFB"/>
</linearGradient>
</defs>
</svg>
