<svg width="91" height="85" viewBox="0 0 91 85" fill="none" xmlns="http://www.w3.org/2000/svg">
<path d="M29.9609 45.9823C29.9609 44.656 29.9763 43.3272 29.9584 42.0009C29.9149 38.6456 31.0316 35.7349 33.5232 33.4913C34.7421 32.395 35.0795 31.2987 34.9747 29.6683C34.4099 21.0309 37.0829 13.431 42.7177 6.86356C43.0908 6.42913 43.4843 6.01004 43.8855 5.60372C44.6752 4.80132 45.3038 4.7962 46.0909 5.60372C49.5535 9.14557 52.0629 13.2701 53.5809 17.9797C54.9889 22.3495 55.4591 26.8164 54.9097 31.3856C54.8816 31.6232 55.0043 31.9401 55.1678 32.1267C55.592 32.6173 56.075 33.0619 56.5375 33.5194C58.8809 35.8346 60.0334 38.6354 60.018 41.9293C60.0027 44.8962 60.018 47.8631 60.0129 50.8325C60.0129 52.3504 59.1901 52.8641 57.8408 52.1945C55.8118 51.1877 53.7955 50.1553 51.7537 49.1766C51.4471 49.0284 50.9948 48.9977 50.6728 49.0999C46.8498 50.3265 43.0422 50.3137 39.2244 49.0718C38.9459 48.9823 38.5523 49.0181 38.2865 49.1485C36.2243 50.1451 34.1851 51.1851 32.1305 52.1971C30.7761 52.8666 29.9686 52.3504 29.9635 50.8274C29.9584 49.2123 29.9635 47.5999 29.9635 45.9848L29.9609 45.9823ZM49.9624 41.8552C49.7222 41.9012 49.5254 41.9523 49.3235 41.9728C47.6446 42.1517 45.9657 42.328 44.2842 42.4941C44.0797 42.5145 43.8651 42.4915 43.6606 42.4583C42.9119 42.3382 42.4468 41.8067 42.4903 41.1346C42.5337 40.4523 43.0499 40.0409 43.8114 39.9744C45.5696 39.8236 47.3251 39.655 49.0782 39.4506C50.1642 39.3253 50.8798 38.7861 50.9769 37.5876C51.0126 37.1302 51.2248 36.6881 51.35 36.2384C54.1686 26.0703 52.275 16.8911 45.5644 8.72136C45.3907 8.50926 45.1939 8.31505 44.9895 8.09528C44.8004 8.29461 44.67 8.41982 44.5525 8.55526C39.8479 14.0188 37.4688 20.3665 37.3461 27.5601C37.2823 31.3294 38.1664 34.9402 39.2704 38.5025C39.8019 40.2146 40.0856 41.9293 39.9885 43.7181C39.9348 44.6994 39.9783 45.6858 39.9783 46.6697C43.3693 47.7813 46.6735 47.7941 49.9649 46.6748V41.8552H49.9624ZM35.6621 34.8891C34.1978 36.1643 33.0019 37.6055 32.8153 39.4199C32.4883 42.6295 32.4704 45.8724 32.3221 49.0948C32.5726 49.1127 32.6314 49.1357 32.6697 49.1178C33.72 48.6041 34.7268 47.9704 35.8231 47.5947C37.2056 47.1194 37.6784 46.3094 37.4969 44.8809C37.3334 43.6031 37.5582 42.2641 37.3053 41.0119C36.8989 38.9829 36.2422 37.005 35.6596 34.8942L35.6621 34.8891ZM57.4881 49.22C57.4881 46.386 57.5418 43.7054 57.4677 41.0273C57.4217 39.3586 56.8237 37.8202 55.7939 36.4862C55.362 35.9292 54.8611 35.4283 54.3347 34.8354C53.8109 36.7137 53.3279 38.413 52.8628 40.115C52.7197 40.6388 52.5331 41.1729 52.5153 41.707C52.4693 43.2147 52.4871 44.725 52.5127 46.2352C52.5153 46.4525 52.6379 46.777 52.8015 46.8613C54.3168 47.6535 55.8552 48.4048 57.4881 49.22Z" fill="url(#paint0_linear_711_75)"/>
<path d="M77.5305 77.9457C77.7042 71.0793 70.7918 66.7222 64.7558 69.7836C63.7158 70.3126 63.3657 70.2436 62.6016 69.339C61.6433 68.2018 60.4243 67.5988 58.9396 67.5119C57.9379 67.4531 57.5571 67.0519 57.4984 66.0527C57.3271 63.1421 55.9523 60.9878 53.3994 59.5747C52.4565 59.0534 52.206 58.2228 52.8066 57.5482C53.333 56.9579 53.9463 57.032 54.58 57.3719C57.4396 58.9154 59.1926 61.2868 59.8238 64.4581C59.9235 64.9564 60.1458 65.0791 60.5674 65.2682C61.6484 65.7486 62.7012 66.3134 63.7106 66.9318C64.0633 67.1464 64.2856 67.2231 64.6792 67.0723C72.3889 64.154 80.3133 69.8169 80.0297 78.0326C80.0169 78.3699 79.9888 78.7124 79.907 79.0369C79.7384 79.7115 79.2631 80.0591 78.5833 79.985C77.9061 79.9083 77.5126 79.4764 77.487 78.7763C77.4742 78.467 77.5177 78.1527 77.5305 77.9483V77.9457Z" fill="url(#paint1_linear_711_75)"/>
<path d="M27.5435 66.0655C28.3382 62.6105 30.2931 60.257 33.6356 59.1709C34.3691 58.9332 35.1612 58.8387 35.9355 58.7774C36.8504 58.7033 37.433 59.2016 37.4663 59.9554C37.4969 60.7067 36.9501 61.205 36.0327 61.2587C33.2089 61.4248 30.955 63.1574 30.2216 65.792C30.0504 66.4079 29.989 67.0723 29.9916 67.7163C29.9967 68.3449 30.0171 68.9276 29.3834 69.2777C28.765 69.6175 28.2437 69.3416 27.7121 69.0145C23.5672 66.4769 18.3464 67.1848 15.0806 70.7445C13.2969 72.6866 12.4127 74.9967 12.4306 77.6416C12.4306 77.9278 12.4536 78.2141 12.4638 78.5003C12.4894 79.3742 12.0626 79.939 11.3343 79.9952C10.6239 80.0514 9.98248 79.5378 10.0004 78.6843C10.0285 77.2379 10.0131 75.7429 10.3683 74.3579C12.2108 67.1541 19.849 63.2238 26.8331 65.7972C27.0528 65.8789 27.27 65.9607 27.5409 66.0655H27.5435Z" fill="url(#paint2_linear_711_75)"/>
<path d="M42.8429 73.6884C44.1794 71.9507 45.8481 70.7726 47.9563 70.2513C53.2563 68.9378 58.6151 72.9856 58.748 78.4108C58.771 79.3793 58.3161 79.9773 57.5341 79.9977C56.7854 80.0156 56.3024 79.4713 56.2488 78.5462C56.0801 75.6407 54.1175 73.2616 51.3934 72.6662C48.5748 72.0503 45.8864 73.2897 44.4707 75.8579C43.814 77.0488 43.1163 77.1893 42.1146 76.3358C39.1298 73.7906 34.9543 75.0453 33.8631 78.8197C33.5462 79.9134 32.57 80.3376 31.8034 79.7039C31.2897 79.2771 31.2974 78.7328 31.4507 78.1374C32.6467 73.5069 37.8649 71.1534 42.1325 73.3255C42.3599 73.4405 42.5874 73.5606 42.8403 73.6909L42.8429 73.6884Z" fill="url(#paint3_linear_711_75)"/>
<path d="M42.48 61.3354C42.48 63.7043 42.4826 66.0731 42.48 68.442C42.48 69.4259 42.0073 69.9983 41.2279 69.9983C40.4485 69.9983 39.9808 69.4233 39.9808 68.4395C39.9783 63.648 39.9783 58.8591 39.9808 54.0677C39.9808 53.0838 40.451 52.5114 41.233 52.5114C42.0124 52.5114 42.48 53.0838 42.4826 54.0702C42.4877 56.4902 42.4826 58.9128 42.4826 61.3328L42.48 61.3354Z" fill="url(#paint4_linear_711_75)"/>
<path d="M47.4913 57.4358C47.4913 56.2654 47.481 55.0924 47.4938 53.922C47.504 53.0634 47.9998 52.5191 48.7332 52.514C49.4692 52.5089 49.9828 53.0532 49.9879 53.9067C50.0007 56.3011 50.0007 58.6956 49.9879 61.09C49.9828 61.9487 49.4819 62.493 48.7485 62.4981C48.0151 62.5032 47.504 61.9563 47.4938 61.1054C47.4785 59.8813 47.4887 58.6598 47.4887 57.4358H47.4913Z" fill="url(#paint5_linear_711_75)"/>
<path d="M48.7485 65.0126C49.4283 65.0178 49.9905 65.5851 49.9854 66.2622C49.9803 66.9394 49.4078 67.5042 48.7306 67.4991C48.0509 67.494 47.4887 66.9241 47.4938 66.2469C47.4989 65.5672 48.0662 65.0075 48.746 65.0126H48.7485Z" fill="url(#paint6_linear_711_75)"/>
<path d="M44.9793 23.7397C44.992 24.4143 44.4324 24.9919 43.7552 25.0046C43.078 25.0174 42.5005 24.4603 42.4903 23.7806C42.4775 23.1008 43.032 22.5284 43.7143 22.5182C44.3915 22.5054 44.969 23.0625 44.9818 23.7397H44.9793Z" fill="url(#paint7_linear_711_75)"/>
<path d="M43.7245 27.5166C44.4043 27.5115 44.9741 28.0737 44.9793 28.7509C44.9844 29.4256 44.4196 29.998 43.7424 30.0031C43.0652 30.0082 42.4954 29.446 42.4903 28.7688C42.4851 28.0891 43.0448 27.5217 43.7271 27.5166H43.7245Z" fill="url(#paint8_linear_711_75)"/>
<defs>
<linearGradient id="paint0_linear_711_75" x1="45.0109" y1="124.271" x2="45.0109" y2="10.2683" gradientUnits="userSpaceOnUse">
<stop stop-color="#D9E9F8"/>
<stop offset="0.01" stop-color="#D5E5F5"/>
<stop offset="0.21" stop-color="#9AAECD"/>
<stop offset="0.4" stop-color="#6A81AC"/>
<stop offset="0.58" stop-color="#445E93"/>
<stop offset="0.74" stop-color="#294481"/>
<stop offset="0.89" stop-color="#183575"/>
<stop offset="1" stop-color="#133072"/>
</linearGradient>
<linearGradient id="paint1_linear_711_75" x1="45.0229" y1="81.7014" x2="45.0229" y2="-154.849" gradientUnits="userSpaceOnUse">
<stop stop-color="#D9E9F8"/>
<stop offset="0.01" stop-color="#D5E5F5"/>
<stop offset="0.21" stop-color="#9AAECD"/>
<stop offset="0.4" stop-color="#6A81AC"/>
<stop offset="0.58" stop-color="#445E93"/>
<stop offset="0.74" stop-color="#294481"/>
<stop offset="0.89" stop-color="#183575"/>
<stop offset="1" stop-color="#133072"/>
</linearGradient>
<linearGradient id="paint2_linear_711_75" x1="45.0175" y1="81.8179" x2="45.0175" y2="-173.178" gradientUnits="userSpaceOnUse">
<stop stop-color="#D9E9F8"/>
<stop offset="0.01" stop-color="#D5E5F5"/>
<stop offset="0.21" stop-color="#9AAECD"/>
<stop offset="0.4" stop-color="#6A81AC"/>
<stop offset="0.58" stop-color="#445E93"/>
<stop offset="0.74" stop-color="#294481"/>
<stop offset="0.89" stop-color="#183575"/>
<stop offset="1" stop-color="#133072"/>
</linearGradient>
<linearGradient id="paint3_linear_711_75" x1="45.0233" y1="83.8553" x2="45.0233" y2="-457.595" gradientUnits="userSpaceOnUse">
<stop stop-color="#D9E9F8"/>
<stop offset="0.01" stop-color="#D5E5F5"/>
<stop offset="0.21" stop-color="#9AAECD"/>
<stop offset="0.4" stop-color="#6A81AC"/>
<stop offset="0.58" stop-color="#445E93"/>
<stop offset="0.74" stop-color="#294481"/>
<stop offset="0.89" stop-color="#183575"/>
<stop offset="1" stop-color="#133072"/>
</linearGradient>
<linearGradient id="paint4_linear_711_75" x1="44.9779" y1="125.101" x2="44.9779" y2="-184.467" gradientUnits="userSpaceOnUse">
<stop stop-color="#D9E9F8"/>
<stop offset="0.01" stop-color="#D5E5F5"/>
<stop offset="0.21" stop-color="#9AAECD"/>
<stop offset="0.4" stop-color="#6A81AC"/>
<stop offset="0.58" stop-color="#445E93"/>
<stop offset="0.74" stop-color="#294481"/>
<stop offset="0.89" stop-color="#183575"/>
<stop offset="1" stop-color="#133072"/>
</linearGradient>
<linearGradient id="paint5_linear_711_75" x1="45.074" y1="215.333" x2="45.074" y2="-326.863" gradientUnits="userSpaceOnUse">
<stop stop-color="#D9E9F8"/>
<stop offset="0.01" stop-color="#D5E5F5"/>
<stop offset="0.21" stop-color="#9AAECD"/>
<stop offset="0.4" stop-color="#6A81AC"/>
<stop offset="0.58" stop-color="#445E93"/>
<stop offset="0.74" stop-color="#294481"/>
<stop offset="0.89" stop-color="#183575"/>
<stop offset="1" stop-color="#133072"/>
</linearGradient>
<linearGradient id="paint6_linear_711_75" x1="45.0544" y1="472.563" x2="45.0544" y2="-1704.54" gradientUnits="userSpaceOnUse">
<stop stop-color="#D9E9F8"/>
<stop offset="0.01" stop-color="#D5E5F5"/>
<stop offset="0.21" stop-color="#9AAECD"/>
<stop offset="0.4" stop-color="#6A81AC"/>
<stop offset="0.58" stop-color="#445E93"/>
<stop offset="0.74" stop-color="#294481"/>
<stop offset="0.89" stop-color="#183575"/>
<stop offset="1" stop-color="#133072"/>
</linearGradient>
<linearGradient id="paint7_linear_711_75" x1="44.9139" y1="1754.06" x2="44.9139" y2="-422.72" gradientUnits="userSpaceOnUse">
<stop stop-color="#D9E9F8"/>
<stop offset="0.01" stop-color="#D5E5F5"/>
<stop offset="0.21" stop-color="#9AAECD"/>
<stop offset="0.4" stop-color="#6A81AC"/>
<stop offset="0.58" stop-color="#445E93"/>
<stop offset="0.74" stop-color="#294481"/>
<stop offset="0.89" stop-color="#183575"/>
<stop offset="1" stop-color="#133072"/>
</linearGradient>
<linearGradient id="paint8_linear_711_75" x1="43.7322" y1="80.514" x2="43.7322" y2="8.33545" gradientUnits="userSpaceOnUse">
<stop stop-color="#D9E9F8"/>
<stop offset="0.01" stop-color="#D5E5F5"/>
<stop offset="0.21" stop-color="#9AAECD"/>
<stop offset="0.4" stop-color="#6A81AC"/>
<stop offset="0.58" stop-color="#445E93"/>
<stop offset="0.74" stop-color="#294481"/>
<stop offset="0.89" stop-color="#183575"/>
<stop offset="1" stop-color="#133072"/>
</linearGradient>
</defs>
</svg>
